<svg width="21" height="21" viewBox="0 0 21 21" fill="none" xmlns="http://www.w3.org/2000/svg">
<path d="M19 10.5L11 15.5L6.5 18L4.5 19.5L2.5 20L2.5 0.5L19 10.5Z" fill="#3F3F3F"/>
<path d="M18.5353 9.20091L3.74971 0.271318C3.4516 0.0913008 3.1567 0 2.8732 0C2.2715 0 1.66431 0.447768 1.66431 1.44806V19.5562C1.66431 20.5535 2.26773 20.9999 2.86574 21C2.86582 21 2.86582 21 2.86586 21C3.15071 21 3.44713 20.9071 3.74683 20.7238L18.5422 11.675C19.0479 11.3658 19.3372 10.9141 19.3358 10.4357C19.3345 9.9574 19.0427 9.5073 18.5353 9.20091ZM14.1898 7.57776L12.0968 9.83973L4.55136 1.75678L14.1898 7.57776ZM2.65258 20.0468C2.53798 19.9145 2.52145 19.679 2.52145 19.5562V1.44806C2.52145 1.30311 2.54171 1.09421 2.64196 0.967518L11.5131 10.4705L2.65258 20.0468ZM4.6146 19.1883L12.0996 11.0987L14.1865 13.3342L4.6146 19.1883ZM18.095 10.9438L14.9329 12.8778L12.6833 10.4679L14.9388 8.0302L18.0922 9.93464C18.3373 10.0827 18.4782 10.2662 18.4787 10.4381C18.4792 10.61 18.3393 10.7943 18.095 10.9438Z" fill="white"/>
</svg>
